<?xml version="1.0" encoding="iso-8859-1"?>
<!DOCTYPE svg PUBLIC "-//W3C//DTD SVG 1.1//EN" "http://www.w3.org/Graphics/SVG/1.1/DTD/svg11.dtd">
<svg 
 version="1.1" xmlns="http://www.w3.org/2000/svg" xmlns:xlink="http://www.w3.org/1999/xlink" x="0px" y="0px" width="512px"
	 height="512px" viewBox="0 0 512 512" enable-background="new 0 0 512 512" xml:space="preserve"
><g id="2069a460dcf28295e231f3111e05c141"><g></g><path display="inline" d="M317.673,358.438c0,16.334-32.479,29.718-61.673,29.718s-61.673-13.384-61.673-29.718
		s32.479,5.049,61.673,5.049S317.673,342.104,317.673,358.438z M467.448,229.569v116.296c0,63.39-9.237,109.476-27.449,136.971
		c-18.075,27.28-39.754,28.664-43.914,28.664c-11.922,0-21.902-7.402-24.043-19.087c-0.984-3.231-10.231-29.408-53.833-43.092
		c-19.672,6.047-40.555,9.316-62.209,9.316c-20.36,0-40.021-2.936-58.654-8.308c-42.713,15.191-57.642,43.982-58.929,46.615
		c-3.841,9.145-12.569,14.555-22.501,14.555c-4.161,0-25.839-1.384-43.914-28.664c-18.212-27.495-27.45-73.581-27.45-136.971
		V229.569c0,3.042,0.089,6.067,0.217,9.078c1.642-41.292,15.16-79.503,37.179-111.396c-1.707-21.465-3.707-35.037-6.002-50.599
		l-0.533-3.638c-4.529-30.812-19.059-41.779-20.673-42.911c-5.544-3.135-8.057-9.473-6.46-15.654
		c1.607-6.222,7.468-10.426,13.894-10.426h38.208c9.206,0,22.838,4.536,35.493,26.146c6.673,11.398,8.222,26.741,8.363,37.568
		c25.887-16.153,55.516-26.873,87.298-30.539L256,0.5l24.466,36.699c31.783,3.666,61.411,14.386,87.298,30.539
		c0.142-10.827,1.693-26.171,8.367-37.571c12.65-21.606,26.282-26.142,35.488-26.142h38.209c6.425,0,12.286,4.204,13.893,10.426
		c1.598,6.181-0.915,12.519-6.459,15.654c-1.614,1.132-16.145,12.099-20.67,42.909l-0.537,3.64
		c-2.296,15.563-4.295,29.134-6.002,50.599c22.019,31.893,35.537,70.104,37.179,111.396
		C467.358,235.637,467.448,232.611,467.448,229.569z M381.867,70.107c0.004,0.728,0.014,1.419,0.028,2.079
		c0.003,0.124,0.003,0.256,0.007,0.377c0.021,0.768,0.044,1.487,0.075,2.141c0.007,0.2,0.018,0.354,0.027,0.542
		c0.018,0.403,0.038,0.8,0.059,1.148c0.021,0.351,0.042,0.635,0.059,0.926c0.007,0.077,0.011,0.179,0.018,0.253c0,0,0,0,0,0.001
		c0.072,1,0.131,1.611,0.131,1.611l3.496,97.523c0.716-1.938,1.538-3.789,2.526-5.482c0.495-0.847,0.98-1.755,1.456-2.702
		c0.24-0.482,0.475-0.998,0.712-1.5c0.224-0.479,0.454-0.943,0.678-1.442c0.331-0.744,0.657-1.518,0.984-2.292
		c0.11-0.265,0.224-0.52,0.334-0.789c2.34-5.688,4.529-12.018,6.824-17.51c3.246-7.768,6.715-13.835,11.175-13.835
		c0.383,0,0.771,0.044,1.163,0.134c0.317,0.072,0.63,0.106,0.943,0.106c1.053,0,2.093-0.392,3.111-1.029
		c0.551-7.417,1.139-13.938,1.755-19.91c1.566-15.132,3.325-26.634,5.214-39.492c5.861-39.884,27.186-52.845,27.186-52.845
		s-29.408,0-38.209,0c-7.103,0-15.256,5.39-23.326,19.169c-0.517,0.879-0.98,1.807-1.422,2.758c-0.138,0.303-0.258,0.62-0.389,0.928
		c-0.289,0.671-0.564,1.349-0.819,2.046c-0.13,0.363-0.251,0.733-0.375,1.103c-0.227,0.676-0.44,1.359-0.64,2.053
		c-0.106,0.375-0.21,0.75-0.31,1.129c-0.189,0.731-0.368,1.468-0.534,2.211c-0.072,0.337-0.151,0.673-0.22,1.013
		c-0.183,0.876-0.341,1.757-0.489,2.638c-0.03,0.203-0.072,0.404-0.103,0.607c-0.354,2.249-0.606,4.493-0.781,6.665
		c-0.014,0.172-0.024,0.339-0.034,0.511c-0.069,0.895-0.124,1.779-0.169,2.644c-0.011,0.248-0.021,0.487-0.031,0.733
		c-0.034,0.781-0.062,1.549-0.079,2.294c-0.003,0.244-0.011,0.483-0.014,0.723c-0.014,0.733-0.018,1.443-0.018,2.13
		C381.867,69.687,381.864,69.9,381.867,70.107z M142.481,116.969c27.078,4.804,68.291,10.4,113.519,10.4
		c45.301,0,86.473-5.589,113.52-10.387l-0.162-4.529C338.689,86.611,299.15,70.983,256,70.983s-82.693,15.628-113.357,41.474
		L142.481,116.969z M128.467,190.625c-0.753,0.121-1.5,0.179-2.24,0.179c-5.82,0-11.147-3.61-13.216-9.209
		c-0.489-1.321-0.984-2.419-1.466-3.245c-3.235-5.524-5.806-12.255-8.277-18.812c-7.554,13.109-13.505,27.247-17.5,42.193
		c31.955,5.083,97.1,13.742,170.232,13.742s138.277-8.659,170.232-13.742c-3.996-14.947-9.946-29.084-17.5-42.193
		c-2.472,6.556-5.039,13.288-8.264,18.791c-0.495,0.847-0.991,1.945-1.479,3.266c-2.068,5.6-7.396,9.209-13.216,9.209
		c-0.739,0-1.486-0.058-2.24-0.179c-6.646-1.067-11.611-6.684-11.853-13.412l-1.14-31.748
		c-28.155,4.845-69.096,10.097-114.541,10.097s-86.386-5.252-114.542-10.097l-1.139,31.748
		C140.079,183.941,135.112,189.558,128.467,190.625z M317.673,256c0-6.205,2.154-11.9,5.733-16.409
		c-1.886,0.74-3.71,1.473-5.403,2.192c-0.004,0-0.004,0-0.004,0c-0.017,0.007-0.03,0.014-0.048,0.021
		c-0.901,0.386-1.772,0.768-2.622,1.146c-0.193,0.087-0.383,0.169-0.571,0.255c-3.597,1.625-6.722,3.19-9.42,4.694
		c-0.127,0.072-0.251,0.142-0.375,0.21c-0.619,0.348-1.226,0.695-1.8,1.036c-0.097,0.059-0.187,0.113-0.282,0.172
		c-1.714,1.025-3.238,2.017-4.584,2.97c-0.176,0.124-0.354,0.248-0.523,0.372c-0.351,0.255-0.691,0.506-1.019,0.754
		c-0.21,0.158-0.406,0.313-0.605,0.472c-0.286,0.224-0.575,0.45-0.844,0.667c-0.354,0.293-0.688,0.578-1.008,0.864
		c-0.234,0.203-0.455,0.402-0.672,0.603c-0.244,0.224-0.484,0.447-0.709,0.664c-0.147,0.147-0.289,0.289-0.43,0.434
		c-0.228,0.23-0.444,0.454-0.65,0.678c-0.106,0.113-0.214,0.23-0.313,0.341c-0.296,0.33-0.574,0.654-0.822,0.964
		c-3.27,4.071-3.766,7.275-1.958,12.686c3.769,11.309,21.743,19.514,42.747,19.514c8.28,0,16.616-1.322,24.108-3.82
		c13.793-4.598,27.178-14.072,35.802-25.344c7.582-9.912,10.676-20.126,8.277-27.326c-0.799-2.395-2.922-8.762-19.521-8.762
		c-7.93,0-17.669,1.535-29.002,4.505c11.168,3.087,19.379,13.298,19.379,25.45c0,14.599-11.835,26.431-26.431,26.431
		S317.673,270.599,317.673,256z M141.465,256c0-12.152,8.212-22.363,19.379-25.45c-11.333-2.97-21.072-4.505-29.002-4.505
		c-15.215,0.003-18.261,5.341-19.279,8.081c-0.003,0.007-0.003,0.014-0.007,0.023c-0.089,0.237-0.168,0.469-0.234,0.661
		c-2.399,7.196,0.695,17.41,8.277,27.322c8.625,11.271,22.008,20.746,35.799,25.344c7.496,2.498,15.831,3.82,24.111,3.82
		c21.004,0,38.979-8.205,42.747-19.511c1.808-5.413,1.312-8.617-1.958-12.688c-0.248-0.31-0.526-0.634-0.822-0.964
		c-0.1-0.11-0.207-0.228-0.313-0.341c-0.206-0.224-0.423-0.447-0.65-0.678c-0.141-0.145-0.282-0.286-0.43-0.434
		c-0.224-0.217-0.465-0.44-0.709-0.664c-0.217-0.2-0.438-0.399-0.672-0.603c-0.319-0.286-0.653-0.571-1.008-0.864
		c-0.269-0.217-0.558-0.443-0.844-0.667c-0.199-0.158-0.396-0.313-0.605-0.472c-0.327-0.248-0.667-0.499-1.019-0.754
		c-0.169-0.124-0.348-0.248-0.523-0.372c-1.346-0.953-2.87-1.944-4.584-2.97c-0.096-0.059-0.186-0.113-0.282-0.172
		c-0.574-0.341-1.181-0.688-1.8-1.036c-0.124-0.068-0.248-0.138-0.375-0.21c-2.698-1.504-5.823-3.069-9.42-4.694
		c-0.188-0.086-0.378-0.168-0.571-0.255c-0.85-0.378-1.721-0.76-2.622-1.146c-0.018-0.007-0.031-0.014-0.048-0.021c0,0,0,0-0.004,0
		c-1.693-0.72-3.517-1.452-5.403-2.192c3.579,4.509,5.733,10.204,5.733,16.409c0,14.599-11.835,26.431-26.431,26.431
		S141.465,270.599,141.465,256z M89.357,70.965c1.889,12.858,3.648,24.359,5.214,39.492c0.616,5.971,1.205,12.493,1.755,19.91
		c1.019,0.637,2.058,1.029,3.111,1.029c0.313,0,0.626-0.034,0.943-0.106c0.393-0.09,0.781-0.134,1.163-0.134
		c4.45,0,7.916,6.043,11.158,13.79c2.302,5.503,4.495,11.853,6.842,17.555c0.11,0.269,0.224,0.523,0.334,0.789
		c0.327,0.774,0.654,1.548,0.984,2.292c0.224,0.499,0.455,0.963,0.682,1.445c0.234,0.499,0.468,1.019,0.709,1.497
		c0.475,0.946,0.96,1.855,1.456,2.702c0.988,1.693,1.811,3.545,2.526,5.482l3.497-97.523c0,0,0.059-0.611,0.131-1.611
		c0-0.001,0-0.001,0-0.001c0.007-0.074,0.01-0.176,0.017-0.253c0.017-0.291,0.038-0.575,0.059-0.926
		c0.021-0.348,0.041-0.745,0.059-1.148c0.01-0.188,0.021-0.342,0.027-0.542c0.031-0.654,0.055-1.373,0.076-2.141
		c0-0.117,0.003-0.245,0.003-0.363c0.017-0.667,0.027-1.368,0.031-2.104c0.003-0.198,0-0.402,0-0.605
		c0-0.69-0.003-1.406-0.017-2.144c-0.003-0.239-0.01-0.479-0.014-0.723c-0.017-0.745-0.045-1.513-0.079-2.294
		c-0.01-0.246-0.021-0.485-0.031-0.733c-0.044-0.864-0.1-1.749-0.168-2.644c-0.01-0.172-0.021-0.339-0.034-0.511
		c-0.176-2.172-0.427-4.416-0.781-6.665c-0.031-0.203-0.072-0.404-0.104-0.607c-0.148-0.881-0.306-1.762-0.489-2.64
		c-0.069-0.337-0.145-0.671-0.22-1.007c-0.165-0.747-0.344-1.487-0.537-2.221c-0.097-0.377-0.2-0.749-0.307-1.122
		c-0.199-0.693-0.413-1.377-0.64-2.055c-0.124-0.37-0.244-0.74-0.375-1.103c-0.254-0.697-0.53-1.375-0.819-2.046
		c-0.131-0.308-0.251-0.625-0.389-0.928c-0.44-0.952-0.905-1.879-1.421-2.758c-8.07-13.78-16.223-19.169-23.327-19.169
		c-8.8,0-38.208,0-38.208,0S83.496,31.082,89.357,70.965z M164.975,438.078c-40.906-19.541-74.523-51.847-95.75-91.758
		c0.1,140.504,46.691,140.511,46.691,140.511S128.398,458.782,164.975,438.078z M432.207,247.189c0-5.968-0.307-11.863-0.888-17.676
		c-5.091,0.819-11.093,1.734-17.738,2.685c6.494,24.858-19.937,57.457-53.522,68.652c-9.248,3.083-19.035,4.542-28.568,4.542
		c-25.949,0-50.013-10.819-56.121-29.149c-3.314-9.939-3.136-21.279,11.591-33.066c-10.101,0.307-20.422,0.489-30.96,0.489
		s-20.859-0.183-30.96-0.489c14.727,11.787,14.905,23.127,11.591,33.066c-6.108,18.33-30.172,29.149-56.121,29.149
		c-9.533,0-19.321-1.459-28.568-4.542c-33.586-11.195-60.017-43.794-53.522-68.652c-6.646-0.95-12.648-1.865-17.738-2.685
		c-0.582,5.813-0.888,11.708-0.888,17.676c0,97.162,79.045,176.207,176.207,176.207
		C353.162,423.396,432.207,344.352,432.207,247.189z M442.775,346.32c-20.587,38.71-52.854,70.234-92.105,89.931
		c38.783,20.838,45.415,50.58,45.415,50.58S442.676,486.824,442.775,346.32z"></path></g></svg>