<?xml version="1.0" encoding="iso-8859-1"?>
<!DOCTYPE svg PUBLIC "-//W3C//DTD SVG 1.1//EN" "http://www.w3.org/Graphics/SVG/1.1/DTD/svg11.dtd">
<svg 
 version="1.1" xmlns="http://www.w3.org/2000/svg" xmlns:xlink="http://www.w3.org/1999/xlink" x="0px" y="0px" width="512px"
	 height="512px" viewBox="0 0 512 512" enable-background="new 0 0 512 512" xml:space="preserve"
><g id="2069a460dcf28295e231f3111e04db4a"><g></g><path display="inline" d="M106.946,194.539c0,0-2.262-2.963-0.599-13.077c4.753-28.902,23.704-53.042,52.923-53.212
		c29.22,0.17,48.17,24.311,52.923,53.212c1.664,10.114-0.599,13.077-0.599,13.077c-5.529,10.324-13.977,10.03-18.778-0.651
		c0,0-10.282-22.847-33.547-23.053c-23.265,0.206-33.547,23.053-33.547,23.053C120.923,204.569,112.475,204.863,106.946,194.539z
		 M317.962,193.888c0,0,10.28-22.847,33.543-23.053c23.267,0.206,33.551,23.053,33.551,23.053
		c4.799,10.681,13.249,10.975,18.776,0.651c0,0,2.262-2.963,0.599-13.077c-4.754-28.902-23.704-53.042-52.926-53.212
		c-29.218,0.17-48.168,24.311-52.922,53.212c-1.663,10.114,0.6,13.077,0.6,13.077C304.713,204.863,313.159,204.569,317.962,193.888z
		 M511.5,256c0,141.107-114.393,255.5-255.5,255.5S0.5,397.107,0.5,256S114.893,0.5,256,0.5S511.5,114.893,511.5,256z M468.917,256
		c0-117.404-95.514-212.917-212.917-212.917C138.596,43.083,43.083,138.596,43.083,256c0,117.403,95.513,212.917,212.917,212.917
		C373.403,468.917,468.917,373.403,468.917,256z M426.333,251.962c0,51.029-24.335,174.371-170.333,174.371
		c-146,0-170.333-123.342-170.333-174.371c0-51.027,89.702,27.376,170.333,27.376C336.634,279.338,426.333,200.935,426.333,251.962z
		 M396.271,319.459C372.302,335.341,325.714,358.2,256,358.2c-69.716,0-116.302-22.855-140.269-38.737
		c16.619,42.838,54.383,89.758,140.269,89.758C341.891,409.221,379.649,362.301,396.271,319.459z M409.3,251.818
		c-9.19,1.144-26.552,8.33-42.026,14.736C335.27,279.804,295.439,296.292,256,296.292c-39.444,0-79.284-16.493-111.295-29.746
		c-15.463-6.399-32.819-13.583-42.005-14.728c0,0.021,0,0.044,0,0.064c0,4.706,0.397,20.128,4.637,39.561
		c0.484,0.315,0.946,0.682,1.372,1.105c0.634,0.624,50.373,48.618,147.291,48.618c97.542,0,146.792-48.118,147.278-48.605
		c0.429-0.428,0.895-0.798,1.385-1.118c4.237-19.429,4.637-34.855,4.637-39.561C409.3,251.862,409.3,251.839,409.3,251.818z"></path></g></svg>