<?xml version="1.0" encoding="iso-8859-1"?>
<!DOCTYPE svg PUBLIC "-//W3C//DTD SVG 1.1//EN" "http://www.w3.org/Graphics/SVG/1.1/DTD/svg11.dtd">
<svg 
 version="1.1" xmlns="http://www.w3.org/2000/svg" xmlns:xlink="http://www.w3.org/1999/xlink" x="0px" y="0px" width="512px"
	 height="512px" viewBox="0 0 512 512" style="enable-background:new 0 0 512 512;" xml:space="preserve"
><g id="7935ec95c421cee6d86eb22ecd10a08f"><g></g><path style="display: inline; fill-rule: evenodd; clip-rule: evenodd;" d="M128.294,202.738c0-23.496,19.043-42.54,42.54-42.54
		c23.555,0,42.656,19.043,42.656,42.54c0,23.555-19.102,42.657-42.656,42.657C147.337,245.395,128.294,226.293,128.294,202.738z
		 M341.226,245.395c23.496,0,42.539-19.102,42.539-42.657c0-23.496-19.043-42.54-42.539-42.54c-23.556,0-42.657,19.043-42.657,42.54
		C298.568,226.293,317.67,245.395,341.226,245.395z M511.5,320.277l-3.867,13.478c0,0-8.32,37.441-34.922,61.23
		c-35.04,31.172-72.892,26.719-72.892,26.719s-3.75,0.82-10.898,0.586c-36.445,29.181-82.618,46.642-132.892,46.642
		c-50.274,0-96.446-17.461-132.892-46.642c-7.148,0.234-10.898-0.586-10.898-0.586s-37.911,4.453-72.891-26.719
		c-26.661-23.789-34.981-61.23-34.981-61.23L0.5,320.277c0,0,31.934,33.81,64.278,29.298C50.95,321.332,43.098,289.574,43.098,256
		c0-117.599,95.333-212.931,212.931-212.931c117.54,0,212.932,95.333,212.932,212.931c0,33.574-7.852,65.332-21.563,93.575
		C479.742,354.087,511.5,320.277,511.5,320.277z M78.547,256c0,28.77,6.973,55.898,19.161,79.923
		c14.18-9.609,30.469-23.438,62.461-40.548c43.184-23.086,95.86-17.461,95.86-17.461s52.676-5.625,95.86,17.461
		c31.992,17.109,48.281,30.938,62.578,40.548c12.188-24.024,18.984-51.153,18.984-79.923c0-97.794-79.57-177.482-177.423-177.482
		S78.547,158.206,78.547,256z M340.991,411.743c-7.969-3.047-16.582-6.797-25.958-11.602
		c-20.684-10.664-35.684-27.656-45.762-37.266c-7.383-6.914-13.242-7.324-13.242-7.324s-5.859,0.41-13.242,7.324
		c-10.078,9.609-25.079,26.602-45.762,37.266c-9.375,4.805-17.988,8.555-25.957,11.602c25.254,13.828,54.2,21.68,84.961,21.68
		S315.736,425.571,340.991,411.743z"></path></g></svg>