<?xml version="1.0" encoding="iso-8859-1"?>
<!DOCTYPE svg PUBLIC "-//W3C//DTD SVG 1.1//EN" "http://www.w3.org/Graphics/SVG/1.1/DTD/svg11.dtd">
<svg 
 version="1.1" xmlns="http://www.w3.org/2000/svg" xmlns:xlink="http://www.w3.org/1999/xlink" x="0px" y="0px" width="512px"
	 height="512px" viewBox="0 0 512 512" enable-background="new 0 0 512 512" xml:space="preserve"
><g id="2069a460dcf28295e231f3111e04aad5"><g></g><g fill="#123c69"><path display="inline" d="M256,0.5C114.893,0.5,0.5,114.893,0.5,256S114.893,511.5,256,511.5S511.5,397.107,511.5,256
		S397.107,0.5,256,0.5z M256,468.917c-117.404,0-212.917-95.514-212.917-212.917c0-117.404,95.513-212.917,212.917-212.917
		c117.403,0,212.917,95.513,212.917,212.917C468.917,373.403,373.403,468.917,256,468.917z M128.25,223.387
		c0-29.396,23.833-53.229,53.229-53.229c29.397,0,53.229,23.833,53.229,53.229s-23.833,53.231-53.229,53.231
		C152.083,276.618,128.25,252.783,128.25,223.387z M131.641,162.09c-3.771,8.758-13.552,11.382-21.747,5.834
		c0,0-3.137-1.397-2.925-8.864c0.613-21.333,18.56-43.453,52.545-51.95c34.042-8.265,60.213,2.981,70.668,21.589
		c3.655,6.512,1.528,9.209,1.528,9.209c-4.68,8.718-14.561,10.939-21.969,4.936c0,0-15.859-12.839-42.975-6.306
		C139.719,143.352,131.641,162.09,131.641,162.09z M424.882,208.04c-6.624,7.346-16.755,7.138-22.51-0.463
		c0,0-9.115-11.956-29.334-15.441c6.694,8.901,10.712,19.932,10.712,31.927c0,29.396-23.832,53.229-53.229,53.229
		c-29.396,0-53.229-23.833-53.229-53.229c0-25.725,18.251-47.189,42.508-52.148c10.733-6.751,25.03-10.991,42.351-11.051
		c35.031,0.121,57.754,17.302,63.451,37.87C427.598,205.931,424.882,208.04,424.882,208.04z M364.912,368.064
		c0,0-51.025,15.686-110.434,15.686c-59.411,0-110.434-15.686-110.434-15.686c-10.028-3.086-8.583-5.606,3.212-5.606h214.445
		C373.495,362.458,374.942,364.979,364.912,368.064z"></path></g></g></svg>