<?xml version="1.0" encoding="iso-8859-1"?>
<!DOCTYPE svg PUBLIC "-//W3C//DTD SVG 1.1//EN" "http://www.w3.org/Graphics/SVG/1.1/DTD/svg11.dtd">
<svg 
 version="1.1" xmlns="http://www.w3.org/2000/svg" xmlns:xlink="http://www.w3.org/1999/xlink" x="0px" y="0px" width="512px"
	 height="512px" viewBox="0 0 512 512" style="enable-background:new 0 0 512 512;" xml:space="preserve"
><g id="7935ec95c421cee6d86eb22ecd1102df"><g></g><g fill="#123c69"><path style="display: inline;" d="M256,0.5C114.893,0.5,0.5,114.893,0.5,256S114.893,511.5,256,511.5S511.5,397.107,511.5,256
		S397.107,0.5,256,0.5z M351.813,149.542c29.396,0,53.229,23.833,53.229,53.229c0,29.396-23.833,53.229-53.229,53.229
		s-53.229-23.833-53.229-53.229C298.583,173.374,322.416,149.542,351.813,149.542z M160.188,149.542
		c29.396,0,53.229,23.833,53.229,53.229c0,29.396-23.833,53.229-53.229,53.229s-53.229-23.833-53.229-53.229
		C106.958,173.374,130.791,149.542,160.188,149.542z M275.928,372.847c-7.032,42.962-31.975,74.778-61.783,74.778
		c-31.455,0-57.471-35.439-62.761-82.015c-20.21-3.639-36.674-8.592-49.195-14.862c-25.858-12.954-27.167-27.991-27.167-30.873
		c0-5.88,4.766-10.646,10.646-10.646c5.54,0,10.089,4.229,10.6,9.635c0.786,1.983,15.94,32.948,158.756,32.948
		c0.32,0,0.64,0,0.969,0c144.147-0.142,159.014-31.542,159.829-33.626c0.865-5.401,5.818-9.315,11.286-8.929
		c5.868,0.429,10.271,5.527,9.844,11.391C436.339,329.023,425.443,369.395,275.928,372.847z"></path></g></g></svg>