<?xml version="1.0" encoding="iso-8859-1"?>
<!DOCTYPE svg PUBLIC "-//W3C//DTD SVG 1.1//EN" "http://www.w3.org/Graphics/SVG/1.1/DTD/svg11.dtd">
<svg 
 version="1.1" xmlns="http://www.w3.org/2000/svg" xmlns:xlink="http://www.w3.org/1999/xlink" x="0px" y="0px" width="512px"
	 height="512px" viewBox="0 0 512 512" enable-background="new 0 0 512 512" xml:space="preserve"
><g id="2069a460dcf28295e231f3111e04a45b"><g></g><g fill="#123c69"><path display="inline" d="M106.946,215.831c0,0-2.262-2.963-0.599-13.076c4.753-28.902,23.704-53.042,52.925-53.213
		c29.218,0.171,48.168,24.311,52.921,53.213c1.664,10.113-0.599,13.076-0.599,13.076c-5.531,10.324-13.977,10.03-18.78-0.651
		c0,0-10.28-22.847-33.543-23.053c-23.267,0.206-33.551,23.053-33.551,23.053C120.923,225.861,112.473,226.154,106.946,215.831z
		 M317.962,215.18c0,0,10.28-22.847,33.543-23.053c23.267,0.206,33.551,23.053,33.551,23.053
		c4.799,10.681,13.249,10.975,18.776,0.651c0,0,2.262-2.963,0.599-13.076c-4.754-28.902-23.704-53.042-52.926-53.213
		c-29.218,0.171-48.168,24.311-52.922,53.213c-1.663,10.113,0.6,13.076,0.6,13.076C304.713,226.154,313.159,225.861,317.962,215.18z
		 M511.5,256c0,141.107-114.393,255.5-255.5,255.5S0.5,397.107,0.5,256S114.893,0.5,256,0.5S511.5,114.893,511.5,256z M468.917,256
		c0-117.404-95.514-212.917-212.917-212.917C138.596,43.083,43.083,138.596,43.083,256c0,117.403,95.513,212.917,212.917,212.917
		C373.403,468.917,468.917,373.403,468.917,256z M256,295.672c-80.634,0-170.333-69.692-170.333-24.335
		c0,45.356,24.336,154.996,170.333,154.996c145.998,0,170.333-109.64,170.333-154.996C426.333,225.979,336.634,295.672,256,295.672z
		"></path></g></g></svg>